<?xml version="1.0" standalone="no"?><!DOCTYPE svg PUBLIC "-//W3C//DTD SVG 1.1//EN" "http://www.w3.org/Graphics/SVG/1.1/DTD/svg11.dtd"><svg t="1649641314406" class="icon" viewBox="0 0 1024 1024" version="1.1" xmlns="http://www.w3.org/2000/svg" p-id="1638" width="32" height="32" xmlns:xlink="http://www.w3.org/1999/xlink"><defs><style type="text/css">@font-face { font-family: feedback-iconfont; src: url("//at.alicdn.com/t/font_1031158_u69w8yhxdu.woff2?t=1630033759944") format("woff2"), url("//at.alicdn.com/t/font_1031158_u69w8yhxdu.woff?t=1630033759944") format("woff"), url("//at.alicdn.com/t/font_1031158_u69w8yhxdu.ttf?t=1630033759944") format("truetype"); }
</style></defs><path d="M1023.154 511.332C1023.154 229.354 794.134 0.78 511.6 0.78 229.042 0.78 0 229.354 0 511.332c0 260.475 195.45 475.381 447.955 506.658 14.247 3.005 31.566 4.741 52.224 4.741 5.788 0 11.376-0.312 16.785-0.868 280.042-2.872 506.212-230.333 506.212-510.53z m-73.127 7.235a500.157 500.157 0 0 0-9.973-74.64c0.445-8.66 0.557-16.852 0.334-24.488a438.606 438.606 0 0 1 9.64 99.128z m-876.945-7.213c0-30.942 3.228-61.15 9.35-90.29 18.922 20.258 63.577 19.768 74.463-10.462 19.478 11.575 45.634 13.712 45.634 36.886 0 76.466 2.738 158.453 72.304 159.722 1.959 0.022 38.8 13.935 56.32 59.347 6.077 15.716 30.052 0 56.342 0 13.134 0 0 22.105 0 69.855 0 47.594 102.712 120.854 102.712 120.854-0.468 31.5 0.823 56.966 3.428 77.312-23.152-0.445-42.719 2.627-58.057 7.858C229.621 906.507 73.082 727.174 73.082 511.354z m546.46 424.27c-2.27-11.13-12.221-17.207-30.364-12.443 14.47-61.574 21.504-96.078 51.735-122.257 43.742-37.866 5.209-79.983-28.049-75.02-26.246 3.963-9.661-32.433-33.08-34.437-23.418-1.959-53.982-48.462-87.685-64.467-17.853-8.46-35.395-31.166-62.954-32.19-24.398-0.957-60.104 20.614-60.104 4.007 0-53.56-5.41-91.759-6.523-107.008-0.89-12.265-8.014-4.14 24.977-3.339 17.964 0.468 9.194-36.04 26.98-37.465 17.453-1.38 59.058 16.317 69.677 9.26 9.817-6.566 72.37 163.974 72.37 28.205 0-16.117-8.348-44.12 0-59.392 33.035-60.282 63.977-109.434 61.195-116.624-1.58-4.03-33.814-7.369-59.592 1.268-8.682 2.894 2.76 16.518-9.728 19.412-46.815 10.796-88.198-12.6-73.706-34.616 14.826-22.55 68.586-9.839 73.305-55.05 2.693-25.935 4.942-55.942 6.455-78.248 62.999 9.862 56.098-81.697-37.62-91.492 189.573 2.226 350.208 124.505 409.154 294.222a17.875 17.875 0 0 0-10.462-4.764c-28.316-70.7-97.08-19.545-73.75 42.808-124.995 95.944-93.006 162.883-51.935 201.238 21.593 20.124 42.207 50.42 55.608 72.192-14.581 42.518 53.804 25.489 87.53-46.681-42.897 148.636-162.594 264.77-313.434 302.881z" p-id="1639" fill="#e6e6e6"></path></svg>