<?xml version="1.0" standalone="no"?><!DOCTYPE svg PUBLIC "-//W3C//DTD SVG 1.1//EN" "http://www.w3.org/Graphics/SVG/1.1/DTD/svg11.dtd"><svg t="1692255248492" class="icon" viewBox="0 0 1024 1024" version="1.1" xmlns="http://www.w3.org/2000/svg" p-id="7628" xmlns:xlink="http://www.w3.org/1999/xlink" width="32" height="32"><path d="M512 101.7c-226.6 0-410.3 183.7-410.3 410.3S285.4 922.3 512 922.3 922.3 738.6 922.3 512 738.6 101.7 512 101.7z m0 775.5c-193 0-351.1-149.8-364.3-339.4h132c7.5 0 14-3.9 17.7-9.8L426 399.4l125.8 126.2c8.2 8.2 21.5 8.2 29.7 0.1 8.2-8.2 8.2-21.5 0.1-29.7L440.9 354.9c-4.1-4.1-9.5-6.2-14.9-6.2s-10.8 2-14.9 6.1L270.3 495.7H147.2c8.5-194.1 168.6-348.9 364.8-348.9 196.2 0 356.3 154.8 364.8 348.9H728.2c-6.7 0-12.7 3.2-16.5 8.1L583.9 631.7l-127-127.4c-8.2-8.2-21.5-8.2-29.7-0.1-8.2 8.2-8.2 21.5-0.1 29.7L567.8 675c7.4 7.4 18.9 8.1 27.1 2.2 2.8-1 5.4-2.6 7.6-4.9l134.7-134.7h139.1C863.1 727.4 705 877.2 512 877.2z" fill="#272728" p-id="7629"></path></svg>